# AST/ASF file generated using VICON BodyLanguage
# -----------------------------------------------
:version 1.10
:name VICON
:units
  mass 1.0
  length 0.45
  angle deg
:documentation
   .ast/.asf automatically generated from VICON data using
   VICON BodyBuilder and BodyLanguage model FoxedUp or BRILLIANT.MOD
:root
   order TX TY TZ RX RY RZ
   axis XYZ
   position 0 0 0  
   orientation 0 0 0 
:bonedata
  begin
     id 1 
     name lhipjoint
     direction 0.662698 -0.695252 0.27831 
     length 2.53073 
     axis 0 0 0  XYZ
  end
  begin
     id 2 
     name lfemur
     direction 0.34202 -0.939693 0  
     length 7.16147  
     axis 0 0 20  XYZ
    dof rx ry rz
    limits (-160.0 20.0)
           (-70.0 70.0)
           (-60.0 70.0)
  end
  begin
     id 3 
     name ltibia
     direction 0.34202 -0.939693 0   
     length 7.63967   
     axis 0 0 20   XYZ
    dof rx
    limits (-10.0 170.0)
  end
  begin
     id 4 
     name lfoot
     direction 0.0938457 -0.257721 0.961651   
     length 1.89793   
     axis -90 7.62852e-016 20   XYZ
    dof rx rz
    limits (-45.0 90.0)
           (-70.0 20.0)
  end
  begin
     id 5 
     name ltoes
     direction -0.00116841 -0.0030592 0.999995   
     length 0.955649   
     axis -90 7.62852e-016 20   XYZ
    dof rx
    limits (-90.0 20.0)
  end
  begin
     id 6 
     name rhipjoint
     direction -0.649445 -0.705948 0.282592   
     length 2.49238  
     axis 0 0 0  XYZ 
  end
  begin
     id 7 
     name rfemur
     direction -0.34202 -0.939693 0   
     length 6.90728   
     axis 0 0 -20   XYZ
    dof rx ry rz
    limits (-160.0 20.0)
           (-70.0 70.0)
           (-70.0 60.0)
  end
  begin
     id 8 
     name rtibia
     direction -0.34202 -0.939693 0   
     length 7.72868   
     axis 0 0 -20   XYZ
    dof rx
    limits (-10.0 170.0)
 end
 begin
     id 9 
     name rfoot
     direction -0.0920068 -0.252865 0.963117   
     length 1.97476  
     axis -90 -7.62852e-016 -20   XYZ
    dof rx rz
    limits (-45.0 90.0)
           (-20.0 70.0)
  end
  begin
     id 10 
     name rtoes
     direction 0.000391322 0.00230649 0.999997   
     length 0.992641   
     axis -90 -7.62852e-016 -20   XYZ
    dof rx
    limits (-90.0 20.0)
  end
  begin
     id 11 
     name lowerback
     direction -0.00875327 0.998321 -0.0572635   
     length 2.20024   
     axis 0 0 0   XYZ
    dof rx ry rz
    limits (-20.0 45.0)
           (-30.0 30.0)
           (-30.0 30.0)
  end
  begin
     id 12 
     name upperback
     direction 0.00753931 0.999972 -0.000360425   
     length 2.20538   
     axis 0 0 0   XYZ
    dof rx ry rz
    limits (-20.0 45.0)
           (-30.0 30.0)
           (-30.0 30.0)
  end
  begin
     id 13 
     name thorax
     direction 0.0117767 0.999601 0.0256663   
     length 2.21508   
     axis 0 0 0   XYZ
    dof rx ry rz
    limits (-20.0 45.0)
           (-30.0 30.0)
           (-30.0 30.0)
  end
  begin
     id 14 
     name lowerneck
     direction 0.060228 0.994909 0.0807986   
     length 1.7607   
     axis 0 0 0   XYZ
    dof rx ry rz
    limits (-20.0 45.0)
           (-30.0 30.0)
           (-30.0 30.0)
  end
  begin
     id 15 
     name upperneck
     direction -0.0563647 0.959594 -0.275685   
     length 1.75612   
     axis 0 0 0   XYZ
    dof rx ry rz
    limits (-20.0 45.0)
           (-30.0 30.0)
           (-30.0 30.0)
  end
  begin
     id 16
     name head
     direction -0.0161544 0.99458 -0.102714  
     length 1.79288  
     axis 0 0 0   XYZ
    dof rx ry rz
    limits (-20.0 45.0)
           (-30.0 30.0)
           (-30.0 30.0)
  end
  begin
     id 17 
     name lclavicle
     direction 0.93913 0.332189 -0.087669  
     length 3.52087  
     axis 0 0 0   XYZ
    dof ry rz
    limits (-20.0 10.0)
           (0.0 20.0)
  end
  begin
     id 18 
     name lhumerus
     direction 1 -4.48974e-011 -2.70836e-027   
     length 5.35289   
     axis -180 -30 -90   XYZ
    dof rx ry rz
    limits (-60.0 90.0)
           (-90.0 90.0)
           (-90.0 90.0)
  end
  begin
     id 19
     name lradius
     direction 1 -4.48961e-011 -9.76021e-027   
     length 3.27727   
     axis -180 -30 -90   XYZ
    dof rx
    limits (-10.0 170.0)
  end
  begin
     id 20
     name lwrist
     direction 1 -4.49103e-011 -2.23668e-026   
     length 1.63864   
     axis 1.44924e-014 90 90   XYZ
    dof ry
    limits (-180.0 0.0)
 end
  begin
     id 21 
     name lhand
     direction 1 3.0697e-005 0.000161777   
     length 0.54443   
     axis 2.85318e-014 90 90   XYZ
    dof rx rz
    limits (-90.0 90.0)
           (-45.0 45.0)
  end
  begin
     id 22 
     name lfingers
     direction 1 -4.49027e-011 -8.9447e-026   
     length 0.438912   
     axis 5.70628e-014 90 90   XYZ
    dof rx
    limits (0.0 90.0)
  end
  begin
     id 23
     name lthumb
     direction 0.707058 2.6516e-005 0.707156   
     length 0.630274   
     axis -90 45 -3.53137e-014   XYZ
    dof rx rz
    limits (-45.0 45.0)
           (-45.0 45.0)
  end
  begin
     id 24 
     name rclavicle
     direction -0.95274 0.284984 -0.105215   
     length 3.43401  
     axis 0 0 0   XYZ 
    dof ry rz
    limits (-10.0 20.0)
           (-20.0 0.0)
  end
  begin
     id 25 
     name rhumerus
     direction -0.999999 -0.000575019 -0.00106829  
     length 5.52077   
     axis -180 30 90   XYZ
    dof rx ry rz
    limits (-90.0 60.0)
           (-90.0 90.0)
           (-90.0 90.0)
  end
  begin
     id 26 
     name rradius
     direction -1 -4.4879e-011 -6.35415e-027   
     length 3.32364   
     axis -180 30 90   XYZ
    dof rx
    limits (-10.0 170.0)
  end
  begin
     id 27 
     name rwrist
     direction -1 -4.49048e-011 -9.98542e-027   
     length 1.66182   
     axis 6.32482e-015 -90 -90   XYZ
    dof ry
    limits (-180.0 0.0)
  end
  begin
     id 28
     name rhand
     direction -1 -4.48978e-011 -1.99771e-026   
     length 0.732235   
     axis 1.27479e-014 -90 -90   XYZ
    dof rx rz
    limits (-90.0 90.0)
           (-45.0 45.0)
  end
  begin
     id 29
     name rfingers
     direction -1 -4.49144e-011 -3.99245e-026   
     length 0.590347   
     axis 2.5496e-014 -90 -90   XYZ
    dof rx
    limits (0.0 90.0)
  end
  begin
     id 30
     name rthumb
     direction -0.707107 -6.35121e-011 0.707107   
     length 0.847624   
     axis -90 -45 -2.82974e-014   XYZ
    dof rx rz
    limits (-45.0 45.0)
           (-45.0 45.0)
  end
:hierarchy
  begin
    root lhipjoint rhipjoint lowerback
    lhipjoint lfemur
    lfemur ltibia
    ltibia lfoot
    lfoot ltoes
    rhipjoint rfemur
    rfemur rtibia
    rtibia rfoot
    rfoot rtoes
    lowerback upperback
    upperback thorax
    thorax lowerneck lclavicle rclavicle
    lowerneck upperneck
    upperneck head
    lclavicle lhumerus
    lhumerus lradius
    lradius lwrist
    lwrist lhand lthumb
    lhand lfingers
    rclavicle rhumerus
    rhumerus rradius
    rradius rwrist
    rwrist rhand rthumb
    rhand rfingers
  end

#!OML:ASF G:\Work\Work\Patient Classification 1\Elijah\terrain1\Elijah.ASF
:FULLY-SPECIFIED
:DEGREES
3394
root 4.69867 20.4098 24.154 187.723 -8.21392 -180.473
lowerback 2.91687 1.53712 0.207077
upperback 5.366 1.31977 5.44732
thorax 3.793 0.301616 5.53994
lowerneck -20.4613 3.9528 5.30127
upperneck 24.9398 4.65282 -4.68962
head 11.8162 1.79399 -1.9264
rclavicle 3.4191e-014 7.63333e-014
rhumerus -31.4054 -0.350834 -74.2563
rradius 40.1588
rwrist -6.9822
rhand -16.9777 23.9282
rfingers 7.12502
rthumb 9.25684 -5.84854
lclavicle 3.4191e-014 7.63333e-014
lhumerus -33.7882 8.50203 84.7645
lradius 34.2704
lwrist 4.67463
lhand -13.1111 25.3661
lfingers 7.12502
lthumb 12.9861 54.9419
rfemur -25.0081 -2.46902 25.8851
rtibia 36.7311
rfoot -21.375 -5.26546
rtoes -11.6979
lfemur -45.4794 7.38361 -18.4354
ltibia 98.5118
lfoot 4.21409 -16.2354
ltoes -12.2298
3395
root 4.70738 20.4226 24.0548 187.416 -8.08325 -180.22
lowerback 3.43183 1.65389 1.11804
upperback 5.87718 1.41712 5.21197
thorax 4.05865 0.357473 4.77205
lowerneck -22.6322 4.04054 4.88974
upperneck 25.5957 4.77112 -4.25438
head 12.4848 1.85082 -1.65447
rclavicle -9.54166e-015 2.8625e-014
rhumerus -30.3179 -0.839932 -74.5026
rradius 40.4584
rwrist -6.88805
rhand -17.0703 24.603
rfingers 7.12502
rthumb 9.16755 -5.17774
lclavicle -9.54166e-015 2.8625e-014
lhumerus -32.7694 8.78133 84.2599
lradius 33.8707
lwrist 4.20088
lhand -13.0034 26.117
lfingers 7.12502
lthumb 13.0899 55.6862
rfemur -23.9339 -2.41465 26.2217
rtibia 36.0768
rfoot -21.3759 -5.23042
rtoes -11.6616
lfemur -47.1166 7.48296 -18.6189
ltibia 99.8006
lfoot 3.58879 -16.6446
ltoes -12.2987
3396
root 4.70878 20.4383 23.9639 187.218 -7.99912 -179.854
lowerback 3.73282 1.59357 1.62617
upperback 5.54352 1.40102 5.12274
thorax 3.55524 0.389594 4.37541
lowerneck -21.1238 4.15478 5.50329
upperneck 25.3256 4.80318 -4.50922
head 12.1073 1.89662 -1.86439
rclavicle -9.54166e-015 -2.8625e-014
rhumerus -31.0784 -0.606629 -74.8295
rradius 41.0415
rwrist -6.95594
rhand -17.0344 24.7351
rfingers 7.12502
rthumb 9.2022 -5.04413
lclavicle -9.54166e-015 -2.8625e-014
lhumerus -33.7022 9.0826 83.4276
lradius 33.5499
lwrist 3.74094
lhand -13.2086 27.0745
lfingers 7.12502
lthumb 12.8921 56.6563
rfemur -23.0741 -2.43561 26.6569
rtibia 35.4482
rfoot -21.2727 -5.11944
rtoes -11.6686
lfemur -49.002 7.5939 -18.7482
ltibia 100.985
lfoot 3.1186 -16.9342
ltoes -12.4424
3397
root 4.71413 20.4481 23.8694 186.975 -7.78832 -179.467
lowerback 4.06714 1.58342 2.05348
upperback 5.23772 1.44902 5.06192
thorax 3.0578 0.443197 4.05528
lowerneck -19.6799 4.30164 6.2006
upperneck 25.0819 4.89781 -4.85849
head 11.7652 1.96478 -2.11239
rclavicle -2.3059e-014 0
rhumerus -31.6978 -0.227948 -75.148
rradius 41.3977
rwrist -7.21747
rhand -17.0611 24.6834
rfingers 7.12502
rthumb 9.17635 -5.09698
lclavicle -2.3059e-014 0
lhumerus -34.7012 9.04265 82.6937
lradius 33.296
lwrist 3.74365
lhand -13.6015 26.24
lfingers 7.12502
lthumb 12.5133 55.8453
rfemur -22.1619 -2.18347 27.1138
rtibia 34.8346
rfoot -21.2588 -5.18472
rtoes -11.278
lfemur -50.7687 7.96303 -18.826
ltibia 102.067
lfoot 2.73644 -17.2877
ltoes -12.2257
3398
root 4.72007 20.4542 23.7665 186.803 -7.46851 -179.203
lowerback 4.25364 1.64287 2.53965
upperback 5.33237 1.53016 4.93979
thorax 3.066 0.496624 3.65012
lowerneck -19.8918 4.47731 6.41052
upperneck 25.3011 5.06456 -4.84651
head 11.9099 2.05661 -2.11624
rclavicle 3.1408e-014 9.54166e-015
rhumerus -31.4248 -0.0178209 -75.4154
rradius 41.6561
rwrist -7.47722
rhand -16.8596 24.5908
rfingers 7.12502
rthumb 9.37083 -5.18086
lclavicle 3.1408e-014 9.54166e-015
lhumerus -34.7126 9.3567 82.0276
lradius 32.7045
lwrist 3.66258
lhand -13.8565 24.1184
lfingers 7.12502
lthumb 12.2675 53.7386
rfemur -21.3043 -1.89384 27.454
rtibia 34.2765
rfoot -21.3985 -5.35012
rtoes -11.2628
lfemur -52.4836 8.35843 -19.08
ltibia 102.997
lfoot 2.09589 -17.5654
ltoes -12.4616
3399
root 4.72365 20.4646 23.6616 186.721 -7.22803 -179.067
lowerback 4.37327 1.78046 2.89494
upperback 5.27584 1.7552 4.70385
thorax 2.94843 0.63425 3.19659
lowerneck -19.7707 4.46457 6.76047
upperneck 25.471 4.87218 -4.67765
head 11.9458 2.0228 -2.14765
rclavicle 8.74653e-015 -5.88403e-014
rhumerus -31.5973 -0.275881 -75.7353
rradius 42.0037
rwrist -7.56577
rhand -16.7354 24.5288
rfingers 7.12502
rthumb 9.49061 -5.23751
lclavicle 8.74653e-015 -5.88403e-014
lhumerus -34.8165 9.33269 81.2556
lradius 31.9676
lwrist 3.29412
lhand -13.7555 23.4733
lfingers 7.12502
lthumb 12.3649 53.0876
rfemur -20.5619 -1.82873 27.6648
rtibia 33.8059
rfoot -21.5587 -5.22319
rtoes -11.1098
lfemur -54.1987 8.44025 -19.4948
ltibia 103.704
lfoot 1.59541 -17.6506
ltoes -11.6168
3400
root 4.72455 20.4736 23.5616 186.655 -7.08581 -178.964
lowerback 4.6259 1.76198 3.32176
upperback 5.40076 1.73428 4.55872
thorax 2.95832 0.634383 2.80319
lowerneck -20.4068 4.52857 6.47129
upperneck 25.7092 4.94668 -4.36258
head 12.152 2.06517 -1.96219
rclavicle -3.45885e-014 -1.1291e-013
rhumerus -31.168 -0.148465 -75.9903
rradius 42.2428
rwrist -7.68353
rhand -16.7831 24.4643
rfingers 7.12502
rthumb 9.44464 -5.30411
lclavicle -3.45885e-014 -1.1291e-013
lhumerus -34.7015 9.64712 80.7292
lradius 31.5032
lwrist 2.81298
lhand -13.7778 23.4974
lfingers 7.12502
lthumb 12.3434 53.113
rfemur -19.8704 -1.86793 27.8266
rtibia 33.3565
rfoot -21.5035 -4.96986
rtoes -10.3447
lfemur -55.9313 8.31253 -19.955
ltibia 104.252
lfoot 1.19796 -17.6047
ltoes -10.4246
